<svg width="155" height="159" viewBox="0 0 155 159" fill="none" xmlns="http://www.w3.org/2000/svg">
<path d="M155 153L145 147.226L145 158.774L155 153ZM152.052 152L150.086 152L150.086 154L152.052 154L152.052 152ZM148.121 152L146.155 152L146.155 154L148.121 154L148.121 152ZM144.19 152L142.224 152L142.224 154L144.19 154L144.19 152ZM140.259 152L138.293 152L138.293 154L140.259 154L140.259 152ZM136.328 152L134.362 152L134.362 154L136.328 154L136.328 152ZM132.397 152L130.431 152L130.431 154L132.397 154L132.397 152ZM128.466 152L126.5 152L126.5 154L128.466 154L128.466 152ZM124.534 152L122.569 152L122.569 154L124.534 154L124.534 152ZM120.603 152L118.638 152L118.638 154L120.603 154L120.603 152ZM116.672 152L114.707 152L114.707 154L116.672 154L116.672 152ZM112.741 152L110.776 152L110.776 154L112.741 154L112.741 152ZM108.81 152L106.845 152L106.845 154L108.81 154L108.81 152ZM104.879 152L102.914 152L102.914 154L104.879 154L104.879 152ZM100.948 152L98.9827 152L98.9827 154L100.948 154L100.948 152ZM97.0172 152L95.0517 152L95.0517 154L97.0172 154L97.0172 152ZM93.0862 152L91.1207 152L91.1207 154L93.0862 154L93.0862 152ZM89.1551 152L87.1896 152L87.1896 154L89.1551 154L89.1551 152ZM85.2241 152L83.2586 152L83.2586 154L85.2241 154L85.2241 152ZM81.2931 152L79.3276 152L79.3276 154L81.2931 154L81.2931 152ZM77.3621 152L75.3965 152L75.3965 154L77.3621 154L77.3621 152ZM73.431 152L71.4655 152L71.4655 154L73.431 154L73.431 152ZM69.5 152L67.5345 152L67.5345 154L69.5 154L69.5 152ZM65.569 152L63.6034 152L63.6034 154L65.569 154L65.569 152ZM61.6379 152L59.6724 152L59.6724 154L61.6379 154L61.6379 152ZM57.7069 152L55.7414 152L55.7414 154L57.7069 154L57.7069 152ZM53.7759 152L51.8104 152L51.8104 154L53.7759 154L53.7759 152ZM49.8448 152L47.8793 152L47.8793 154L49.8448 154L49.8448 152ZM45.9138 152L43.9483 152L43.9483 154L45.9138 154L45.9138 152ZM41.9828 152L41 152L41 154L41.9828 154L41.9828 152ZM41 152C40.6789 152 40.3587 151.996 40.0395 151.988L39.9912 153.988C40.3265 153.996 40.6628 154 41 154L41 152ZM38.127 151.896C37.4874 151.849 36.8521 151.787 36.2216 151.71L35.9791 153.696C36.642 153.777 37.3097 153.842 37.9818 153.891L38.127 151.896ZM34.3279 151.432C33.6967 151.323 33.0707 151.199 32.4503 151.06L32.0138 153.012C32.6662 153.158 33.3245 153.288 33.9882 153.403L34.3279 151.432ZM30.5934 150.596C29.9766 150.426 29.3659 150.241 28.7617 150.041L28.1346 151.941C28.77 152.15 29.4123 152.345 30.061 152.524L30.5934 150.596ZM26.9597 149.397C26.3631 149.166 25.7737 148.922 25.1917 148.663L24.3802 150.491C24.9922 150.763 25.6121 151.02 26.2395 151.262L26.9597 149.397ZM23.4619 147.844C22.8913 147.556 22.3286 147.255 21.7745 146.94L20.7871 148.679C21.3697 149.01 21.9612 149.327 22.5613 149.63L23.4619 147.844ZM20.1334 145.954C19.594 145.612 19.0636 145.257 18.5426 144.889L17.3895 146.523C17.9372 146.91 18.4948 147.283 19.0618 147.643L20.1334 145.954ZM17.0057 143.748C16.5025 143.354 16.0092 142.949 15.5263 142.532L14.2193 144.046C14.7269 144.484 15.2453 144.91 15.7741 145.323L17.0057 143.748ZM14.108 141.246C13.6458 140.806 13.1944 140.354 12.7541 139.892L11.3059 141.271C11.7685 141.757 12.2429 142.232 12.7287 142.694L14.108 141.246ZM11.4679 138.474C11.051 137.991 10.6457 137.497 10.2525 136.994L8.6766 138.226C9.08989 138.755 9.51585 139.273 9.95405 139.781L11.4679 138.474ZM9.11076 135.457C8.74315 134.936 8.38798 134.406 8.04571 133.867L6.35701 134.938C6.71683 135.505 7.09016 136.063 7.47658 136.61L9.11076 135.457ZM7.06 132.226C6.74539 131.671 6.44398 131.109 6.15619 130.538L4.37045 131.439C4.67306 132.039 4.98997 132.63 5.32074 133.213L7.06 132.226ZM5.33661 128.808C5.07823 128.226 4.83371 127.637 4.60342 127.04L2.73761 127.761C2.97978 128.388 3.23695 129.008 3.50863 129.62L5.33661 128.808ZM3.95852 125.238C3.75903 124.634 3.57391 124.023 3.40356 123.407L1.47572 123.939C1.65487 124.588 1.84958 125.23 2.05938 125.865L3.95852 125.238ZM2.93983 121.55C2.80108 120.929 2.67712 120.303 2.56833 119.672L0.597394 120.012C0.711789 120.676 0.84213 121.334 0.988034 121.986L2.93983 121.55ZM2.2897 117.778C2.21269 117.148 2.15072 116.513 2.10417 115.873L0.109448 116.018C0.158368 116.69 0.223492 117.358 0.304456 118.021L2.2897 117.778ZM2.01158 113.961C2.00387 113.641 2 113.321 2 113L-3.49691e-06 113C-3.46743e-06 113.337 0.00407066 113.674 0.0121731 114.009L2.01158 113.961ZM2 113L2 111.991L-3.58511e-06 111.991L-3.49691e-06 113L2 113ZM2 109.973L2 107.955L-3.93793e-06 107.955L-3.76152e-06 109.973L2 109.973ZM2 105.938L2 103.92L-4.29074e-06 103.92L-4.11433e-06 105.938L2 105.938ZM2 101.902L2 99.8839L-4.64355e-06 99.8839L-4.46715e-06 101.902L2 101.902ZM2 97.8661L2 95.8482L-4.99637e-06 95.8482L-4.81996e-06 97.8661L2 97.8661ZM1.99999 93.8304L1.99999 91.8125L-5.34918e-06 91.8125L-5.17277e-06 93.8304L1.99999 93.8304ZM1.99999 89.7947L1.99999 87.7768L-5.70199e-06 87.7768L-5.52559e-06 89.7947L1.99999 89.7947ZM1.99999 85.7589L1.99999 83.7411L-6.05481e-06 83.7411L-5.8784e-06 85.7589L1.99999 85.7589ZM1.99999 81.7232L1.99999 79.7054L-6.40762e-06 79.7054L-6.23121e-06 81.7232L1.99999 81.7232ZM1.99999 77.6875L1.99999 75.6697L-6.76043e-06 75.6697L-6.58403e-06 77.6875L1.99999 77.6875ZM1.99999 73.6518L1.99999 71.6339L-7.11325e-06 71.6339L-6.93684e-06 73.6518L1.99999 73.6518ZM1.99999 69.6161L1.99999 67.5982L-7.46606e-06 67.5982L-7.28965e-06 69.6161L1.99999 69.6161ZM1.99999 65.5804L1.99999 63.5625L-7.81887e-06 63.5625L-7.64247e-06 65.5804L1.99999 65.5804ZM1.99999 61.5447L1.99999 59.5268L-8.17169e-06 59.5268L-7.99528e-06 61.5447L1.99999 61.5447ZM1.99999 57.5089L1.99999 55.4911L-8.5245e-06 55.4911L-8.34809e-06 57.5089L1.99999 57.5089ZM1.99999 53.4732L1.99999 51.4554L-8.87731e-06 51.4554L-8.70091e-06 53.4732L1.99999 53.4732ZM1.99999 49.4375L1.99999 47.4197L-9.23013e-06 47.4197L-9.05372e-06 49.4375L1.99999 49.4375ZM1.99999 45.4018L1.99999 43.3839L-9.58294e-06 43.3839L-9.40653e-06 45.4018L1.99999 45.4018ZM1.99999 41.3661L1.99999 39.3482L-9.93576e-06 39.3482L-9.75935e-06 41.3661L1.99999 41.3661ZM1.99999 37.3304L1.99999 35.3125L-1.02886e-05 35.3125L-1.01122e-05 37.3304L1.99999 37.3304ZM1.99999 33.2946L1.99999 31.2768L-1.06414e-05 31.2768L-1.0465e-05 33.2946L1.99999 33.2946ZM1.99999 29.2589L1.99999 27.2411L-1.09942e-05 27.2411L-1.08178e-05 29.2589L1.99999 29.2589ZM1.99999 25.2232L1.99999 23.2053L-1.1347e-05 23.2053L-1.11706e-05 25.2232L1.99999 25.2232ZM1.99999 21.1875L1.99999 19.1696L-1.16998e-05 19.1696L-1.15234e-05 21.1875L1.99999 21.1875ZM1.99999 17.1518L1.99999 15.1339L-1.20526e-05 15.1339L-1.18762e-05 17.1518L1.99999 17.1518ZM1.99999 13.116L1.99999 11.0982L-1.24055e-05 11.0982L-1.2229e-05 13.116L1.99999 13.116ZM1.99999 9.08032L1.99999 7.06245L-1.27583e-05 7.06245L-1.25819e-05 9.08032L1.99999 9.08032ZM1.99999 5.0446L1.99999 3.02673L-1.31111e-05 3.02673L-1.29347e-05 5.0446L1.99999 5.0446ZM1.99999 1.00888L1.99999 1.33757e-05L-1.33757e-05 1.35505e-05L-1.32875e-05 1.00888L1.99999 1.00888Z" fill="#64A6DE"/>
</svg>
