<svg width="13" height="12" viewBox="0 0 13 12" fill="none" xmlns="http://www.w3.org/2000/svg">
<path d="M12.5596 7.35215V11.7822C12.5596 11.891 12.4663 11.9843 12.3575 11.9843H10.0726C9.96375 11.9843 9.87048 11.891 9.87048 11.7822V7.66303C9.87048 6.57495 9.48188 5.82884 8.50261 5.82884C7.75649 5.82884 7.32126 6.32625 7.11918 6.80811C7.04146 6.9791 7.02592 7.2278 7.02592 7.46096V11.7822C7.02592 11.891 6.93266 11.9843 6.82385 11.9843H4.55442C4.44561 11.9843 4.35234 11.891 4.35234 11.7822C4.35234 10.6786 4.38343 5.34697 4.35234 4.10345C4.35234 3.99464 4.44561 3.90137 4.55442 3.90137H6.83939C6.9482 3.90137 7.04146 3.99464 7.04146 4.10345V5.05163C7.04146 5.06718 7.02592 5.06718 7.02592 5.08272H7.04146V5.05163C7.39898 4.50759 8.03628 3.71484 9.46634 3.71484C11.2384 3.71484 12.5596 4.88065 12.5596 7.35215ZM0.373063 11.9998H2.65804C2.76685 11.9998 2.86011 11.9066 2.86011 11.7978V4.10345C2.86011 3.99464 2.76685 3.90137 2.65804 3.90137H0.373063C0.264254 3.90137 0.17099 3.99464 0.17099 4.10345V11.7978C0.186534 11.9066 0.264254 11.9998 0.373063 11.9998Z" fill="#01539D"/>
<path d="M1.4456 2.8912C2.24398 2.8912 2.8912 2.24398 2.8912 1.4456C2.8912 0.647216 2.24398 0 1.4456 0C0.647216 0 0 0.647216 0 1.4456C0 2.24398 0.647216 2.8912 1.4456 2.8912Z" fill="#01539D"/>
</svg>
