<svg width="12" height="9" viewBox="0 0 12 9" fill="none" xmlns="http://www.w3.org/2000/svg">
<path fill-rule="evenodd" clip-rule="evenodd" d="M11.49 0.795C11.1645 0.216 10.8113 0.1095 10.092 0.069C9.3735 0.02025 7.56675 0 6.0015 0C4.43325 0 2.62575 0.0202501 1.908 0.0682501C1.19025 0.1095 0.83625 0.21525 0.50775 0.795C0.1725 1.37325 0 2.36925 0 4.12275V4.12875C0 5.87475 0.1725 6.87825 0.50775 7.4505C0.83625 8.0295 1.1895 8.1345 1.90725 8.18325C2.62575 8.22525 4.43325 8.25 6.0015 8.25C7.56675 8.25 9.3735 8.22525 10.0927 8.184C10.812 8.13525 11.1652 8.03025 11.4908 7.45125C11.829 6.879 12 5.8755 12 4.1295V4.1235C12 2.36925 11.829 1.37325 11.49 0.795Z" fill="#F44336"/>
<path fill-rule="evenodd" clip-rule="evenodd" d="M4.5 6.375V1.875L8.25 4.125L4.5 6.375Z" fill="#FAFAFA"/>
</svg>
